<svg xmlns="http://www.w3.org/2000/svg" version="1.0" width="300.000000pt" height="625.000000pt" viewBox="0 0 300.000000 625.000000" preserveAspectRatio="xMidYMid meet">
<g transform="translate(0.000000,625.000000) scale(0.100000,-0.100000)" fill="#000000" stroke="none">
<path d="M1570 4498 c0 -5 -12 -6 -27 -4 -20 4 -23 2 -15 -6 17 -17 15 -28 -4 -21 -14 5 -15 3 -7 -12 16 -28 42 -27 49 1 3 13 7 24 8 25 0 0 26 3 57 5 50 4 57 2 62 -15 3 -14 15 -21 38 -23 19 -2 32 -7 31 -12 -2 -5 2 -13 10 -17 10 -7 10 -9 0 -9 -8 0 -10 -5 -6 -12 5 -8 2 -9 -12 -3 -10 4 -35 11 -54 15 -19 4 -49 11 -66 15 -18 4 -34 3 -38 -3 -7 -11 40 -26 55 -16 5 3 16 1 23 -5 8 -6 51 -14 97 -18 54 -4 75 -9 59 -13 l-25 -6 28 -7 c44 -12 193 -168 183 -194 -3 -8 -1 -11 5 -8 12 8 55 -44 51 -62 -2 -7 4 -16 12 -19 9 -3 13 -10 10 -15 -3 -5 3 -21 14 -37 10 -15 31 -58 46 -97 16 -38 35 -83 44 -100 12 -21 17 -62 20 -142 1 -62 9 -130 17 -152 12 -36 9 -110 -9 -196 -3 -11 -5 -31 -6 -45 -3 -33 -27 64 -33 134 -7 66 -16 116 -28 141 -18 41 -39 111 -39 131 0 12 -7 27 -15 34 -19 16 -19 8 5 -70 28 -89 36 -129 54 -249 36 -240 15 -332 -118 -526 -41 -59 -42 -62 -41 -141 0 -64 4 -86 18 -101 9 -11 17 -25 17 -31 0 -6 5 -14 11 -18 8 -4 9 3 4 25 -6 29 6 43 20 22 3 -5 29 -17 58 -27 80 -26 81 -27 73 -119 -10 -135 -50 -235 -184 -470 -123 -215 -196 -306 -295 -369 -32 -21 -73 -40 -90 -43 -46 -7 -141 38 -190 90 -27 28 -36 34 -27 17 37 -72 148 -129 227 -117 35 6 133 61 168 95 97 93 198 250 335 520 51 102 65 140 77 215 17 101 20 108 33 87 8 -12 10 -10 10 8 0 12 2 22 4 22 2 0 32 -13 67 -29 35 -16 105 -42 154 -59 110 -37 167 -63 186 -82 106 -112 177 -283 207 -500 22 -156 34 -287 31 -333 -2 -26 0 -47 4 -47 5 0 7 -12 5 -27 -2 -16 -9 -28 -15 -27 -7 1 -34 2 -59 3 -52 1 -57 22 -8 32 21 5 15 7 -27 8 -31 0 -102 15 -157 31 -144 43 -161 41 -316 -32 -72 -34 -141 -68 -152 -75 -52 -33 -83 -34 -147 -4 -141 65 -184 82 -226 92 -39 9 -48 7 -77 -13 -62 -42 -54 -115 29 -281 39 -79 46 -101 36 -108 -8 -5 -52 -9 -99 -9 -906 -4 -1253 -4 -1335 0 l-100 5 2 35 c1 19 18 84 38 144 31 93 35 116 29 160 l-7 51 -12 -40 c-7 -22 -29 -92 -49 -155 -41 -131 -60 -220 -49 -231 11 -10 2773 -18 2773 -7 0 4 -15 9 -32 9 -18 1 -58 2 -88 3 -145 6 -958 6 -971 1 -22 -8 -41 17 -107 148 -64 126 -83 198 -62 237 10 19 18 22 58 17 40 -4 168 -56 275 -112 16 -8 33 -15 38 -15 4 0 93 40 197 90 104 49 199 90 210 90 11 0 85 -20 164 -44 157 -49 300 -87 306 -82 2 2 -4 28 -12 57 -8 30 -14 77 -14 104 2 81 -30 331 -58 450 -42 176 -98 300 -173 378 -46 49 -61 57 -217 111 -327 112 -458 167 -475 198 -16 30 8 145 39 187 15 20 33 41 40 46 8 6 21 33 30 60 10 28 22 51 27 53 12 3 25 49 19 67 -3 7 2 15 10 18 9 4 16 18 16 31 0 14 6 29 14 33 14 8 37 160 37 243 -1 39 1 43 12 28 8 -10 19 -43 26 -75 7 -32 16 -69 21 -83 4 -14 14 -58 21 -98 7 -40 16 -75 21 -78 12 -7 10 2 -13 113 -32 153 -32 153 -15 118 8 -16 15 -25 15 -20 1 17 -30 99 -40 106 -25 15 -62 156 -66 244 -5 125 -5 128 -53 240 -52 121 -60 137 -134 249 -87 131 -162 203 -305 291 -9 6 -18 13 -21 16 -23 25 -170 40 -170 17z"/>
<path d="M1450 4482 c0 -9 -7 -10 -55 -13 -18 -1 -25 -7 -23 -17 4 -20 57 -35 74 -21 7 6 19 7 25 3 9 -5 7 -10 -7 -15 -14 -6 -9 -8 19 -8 40 -1 46 5 21 24 -14 9 -14 16 -5 33 11 20 9 22 -19 22 -16 0 -30 -4 -30 -8z"/>
<path d="M1228 4472 c-10 -2 -18 -8 -18 -13 0 -5 -25 -23 -55 -40 -67 -38 -168 -135 -216 -209 -35 -53 -81 -158 -92 -210 -14 -64 -85 -277 -113 -337 -7 -17 -14 -34 -14 -37 0 -4 -13 -35 -29 -69 -16 -34 -32 -78 -36 -97 -4 -19 -18 -56 -31 -82 -14 -27 -24 -49 -23 -50 3 -9 -14 -86 -23 -103 -11 -19 -10 -19 9 -2 11 10 21 28 21 40 0 12 16 59 35 104 19 45 31 83 27 85 -5 2 5 36 22 76 20 47 34 70 40 64 6 -6 6 -17 -1 -30 -6 -11 -7 -22 -2 -24 5 -2 2 -25 -5 -53 -8 -27 -18 -68 -23 -90 -45 -190 -93 -370 -108 -406 -8 -20 -14 -45 -13 -55 5 -44 0 -53 -32 -56 -40 -4 -52 -40 -19 -58 12 -6 21 -7 21 -2 0 4 15 25 34 45 32 35 47 73 51 127 1 14 7 39 15 55 7 17 14 37 16 45 1 8 10 44 18 80 9 36 27 118 41 183 13 65 27 123 31 128 3 5 6 31 5 57 0 47 21 126 41 149 5 7 7 17 3 23 -13 21 114 405 157 478 51 88 124 154 196 181 34 12 62 27 62 32 0 6 -6 7 -12 3 -9 -5 -9 -3 1 9 7 9 18 14 25 10 6 -3 8 -3 4 2 -4 4 -3 16 3 27 12 23 10 26 -13 20z"/>
<path d="M1261 4463 c5 -29 -3 -53 -17 -53 -8 0 -12 -5 -9 -11 5 -7 15 -3 29 10 16 15 25 17 40 9 13 -7 17 -7 12 0 -3 6 -2 13 4 17 6 4 7 11 4 17 -4 7 -9 6 -14 -3 -6 -9 -12 -9 -25 4 -18 18 -26 21 -24 10z"/>
<path d="M1681 4318 c8 -14 14 -18 17 -10 2 6 11 12 20 12 15 0 15 2 2 10 -8 5 -23 10 -33 10 -15 0 -16 -3 -6 -22z"/>
<path d="M2060 3798 c8 -17 22 -28 41 -30 28 -4 28 -4 12 14 -9 10 -18 16 -21 13 -3 -3 -14 3 -25 12 -18 17 -18 17 -7 -9z"/>
<path d="M1712 3773 c-20 -7 -38 -13 -39 -13 -8 0 -2 -40 5 -40 5 0 17 9 27 20 10 11 27 20 38 20 19 0 19 -1 3 -19 -17 -19 -17 -19 6 -14 12 3 30 14 39 25 8 11 31 23 50 28 28 7 24 8 -29 7 -34 0 -79 -6 -100 -14z"/>
<path d="M1935 3759 c98 -16 120 -44 120 -155 0 -93 -18 -120 -101 -151 -54 -19 -175 -41 -199 -34 -7 2 -7 -1 0 -8 16 -16 160 5 219 32 87 40 112 97 94 211 -6 38 -5 63 1 69 11 11 3 37 -11 37 -6 0 -8 -9 -5 -20 3 -11 2 -20 -3 -20 -13 0 -32 29 -25 40 4 6 -18 10 -67 9 l-73 -1 50 -9z"/>
<path d="M1621 3663 c-43 -34 -100 -63 -123 -63 -10 0 -18 -4 -18 -10 0 -5 20 -10 43 -10 40 0 77 -21 77 -43 0 -20 75 -107 122 -142 29 -22 56 -44 60 -50 5 -6 8 -5 8 2 0 7 -11 20 -25 29 -14 9 -25 20 -25 25 0 4 -22 29 -50 55 -52 48 -63 68 -32 57 9 -3 14 -3 10 1 -3 4 -14 9 -23 10 -18 3 -45 49 -45 78 0 10 14 32 32 48 41 38 33 47 -11 13z"/>
<path d="M1243 3667 c-54 -20 -51 -30 7 -23 30 4 67 9 83 10 15 2 28 7 30 12 3 14 -84 15 -120 1z"/>
<path d="M1768 3653 c-14 -2 -29 -11 -32 -20 -5 -12 -4 -13 7 -5 16 13 37 -2 37 -26 0 -11 -9 -13 -35 -9 -27 4 -35 2 -35 -9 0 -10 6 -13 18 -10 9 3 34 8 55 12 37 6 37 7 17 21 -26 18 -17 33 20 33 22 0 28 -4 24 -15 -4 -10 0 -15 11 -15 12 0 15 5 10 20 -7 22 10 27 22 7 6 -10 23 -12 63 -7 l55 6 -50 7 c-70 11 -155 16 -187 10z"/>
<path d="M1437 3587 c-8 -21 7 -63 25 -70 9 -4 10 -8 2 -14 -6 -4 -13 -24 -17 -43 -3 -19 -8 -44 -12 -55 -6 -18 -4 -17 14 3 30 34 47 103 29 116 -8 6 -18 27 -24 46 -8 27 -11 31 -17 17z"/>
<path d="M1219 3540 c-19 -10 -42 -26 -50 -36 -13 -16 -12 -17 11 -11 14 4 57 7 97 7 60 0 71 2 67 15 -4 8 -1 22 6 30 19 23 -85 19 -131 -5z m105 -9 c7 -11 -31 -22 -50 -14 -8 3 -14 9 -14 14 0 12 57 12 64 0z"/>
<path d="M1411 3356 c-21 -26 -116 -57 -217 -71 l-99 -15 101 4 c84 3 111 8 157 31 32 14 62 35 67 46 12 22 7 25 -9 5z"/>
<path d="M1682 3250 c-7 -11 -8 -20 -3 -20 6 0 14 8 20 18 8 14 13 15 30 5 26 -16 28 -16 35 2 9 25 -66 20 -82 -5z"/>
<path d="M1769 3126 c-2 -3 -22 -7 -44 -10 -22 -2 -52 -9 -65 -15 -14 -6 -59 -15 -100 -20 -73 -9 -150 -30 -150 -42 0 -15 59 -58 87 -64 28 -6 32 -4 27 10 -5 11 -14 15 -29 11 -17 -4 -25 0 -34 20 -6 15 -10 28 -9 29 2 2 48 9 103 15 55 7 108 16 118 22 10 5 25 8 35 7 9 -1 24 1 32 4 8 4 41 10 73 15 l57 9 0 -30 c0 -21 -4 -28 -14 -24 -9 4 -29 -7 -46 -23 -26 -25 -27 -27 -8 -21 64 21 84 36 99 70 l15 36 -71 3 c-39 1 -73 1 -76 -2z"/>
<path d="M2236 3089 c-9 -46 -7 -87 4 -94 6 -4 10 18 10 59 0 72 -4 83 -14 35z"/>
<path d="M1680 2998 c-25 -5 -66 -6 -92 -3 -33 4 -48 2 -48 -6 0 -9 25 -10 90 -7 81 5 112 11 99 21 -2 2 -24 0 -49 -5z"/>
<path d="M490 2748 c-7 -40 -16 -78 -21 -84 -5 -6 -37 -17 -71 -24 -67 -13 -239 -97 -318 -155 -59 -43 -99 -99 -68 -93 20 4 98 58 98 67 0 5 19 18 43 30 23 12 38 21 32 21 -5 0 17 13 50 29 33 16 68 27 77 26 11 -3 15 1 12 10 -6 13 3 17 67 29 9 2 23 0 30 -5 9 -5 16 -3 20 9 3 9 11 18 18 18 6 1 16 2 22 3 5 0 7 6 4 11 -8 13 19 40 42 41 15 0 15 2 3 7 -17 8 -19 20 -5 42 15 23 15 62 0 76 -7 8 -16 14 -18 14 -3 0 -11 -33 -17 -72z"/>
<path d="M2071 2400 c0 -19 3 -42 9 -50 15 -25 17 -7 4 40 l-12 45 -1 -35z"/>
<path d="M18 2282 c-34 -7 -18 -17 43 -29 88 -17 156 -54 230 -125 89 -86 101 -102 109 -146 l8 -37 1 35 c1 32 -9 53 -59 125 -18 25 -82 83 -125 112 -47 32 -174 72 -207 65z"/>
<path d="M325 1531 c-16 -31 -125 -181 -164 -225 -37 -42 -44 -53 -94 -146 -16 -30 -38 -61 -48 -69 -25 -18 -26 -53 -1 -44 22 9 35 25 79 103 39 69 87 135 116 160 19 17 47 62 78 130 12 25 28 53 36 62 8 9 13 24 11 33 -2 14 -5 13 -13 -4z"/>
<path d="M2740 1170 c-8 -5 -12 -12 -8 -15 9 -9 48 4 48 16 0 12 -21 11 -40 -1z"/>
<path d="M2941 1116 c-7 -9 -8 -17 -2 -20 13 -8 61 11 61 24 0 15 -46 12 -59 -4z"/>
</g>
</svg>